<svg viewBox="0 0 24 24" fill="none" xmlns="http://www.w3.org/2000/svg">
<path d="M5.06107 21.0451L5.57539 20.3372L5.06107 21.0451ZM3.95491 19.9389L4.6628 19.4246L3.95491 19.9389ZM20.0451 19.9389L19.3372 19.4246L20.0451 19.9389ZM18.9389 21.0451L19.4532 21.753L18.9389 21.0451ZM18.9389 4.95492L19.4532 4.24703L18.9389 4.95492ZM20.0451 6.06107L19.3372 6.57539L20.0451 6.06107ZM5.06107 4.95492L5.57539 5.6628L5.57539 5.6628L5.06107 4.95492ZM3.95491 6.06107L4.6628 6.57539L3.95491 6.06107ZM19.2178 16.0616L19.0809 15.1973L19.0809 15.1973L19.2178 16.0616ZM15.0616 20.2178L14.1973 20.0809L14.1973 20.0809L15.0616 20.2178ZM14.125 5C14.125 5.48325 14.5168 5.875 15 5.875C15.4832 5.875 15.875 5.48325 15.875 5H14.125ZM15.875 2C15.875 1.51675 15.4832 1.125 15 1.125C14.5168 1.125 14.125 1.51675 14.125 2H15.875ZM8.125 5C8.125 5.48325 8.51675 5.875 9 5.875C9.48325 5.875 9.875 5.48325 9.875 5H8.125ZM9.875 2C9.875 1.51675 9.48325 1.125 9 1.125C8.51675 1.125 8.125 1.51675 8.125 2H9.875ZM20.9711 16L21.8456 16.03L20.9711 16ZM15 21.9711L15.03 22.8456L15 21.9711ZM12 21.125C10.1056 21.125 8.75516 21.1238 7.71151 21.0107C6.68423 20.8994 6.05853 20.6882 5.57539 20.3372L4.54676 21.753C5.37795 22.3569 6.34684 22.6231 7.52301 22.7505C8.68281 22.8762 10.1446 22.875 12 22.875V21.125ZM2.125 13C2.125 14.8554 2.1238 16.3172 2.24946 17.477C2.37689 18.6532 2.64313 19.6221 3.24703 20.4532L4.6628 19.4246C4.31178 18.9415 4.10057 18.3158 3.98927 17.2885C3.8762 16.2448 3.875 14.8944 3.875 13H2.125ZM5.57539 20.3372C5.2252 20.0828 4.91723 19.7748 4.6628 19.4246L3.24703 20.4532C3.60939 20.952 4.04801 21.3906 4.54676 21.753L5.57539 20.3372ZM19.3372 19.4246C19.0828 19.7748 18.7748 20.0828 18.4246 20.3372L19.4532 21.753C19.952 21.3906 20.3906 20.952 20.753 20.4532L19.3372 19.4246ZM21.875 13C21.875 11.1446 21.8762 9.68281 21.7505 8.52301C21.6231 7.34684 21.3569 6.37795 20.753 5.54676L19.3372 6.57539C19.6882 7.05853 19.8994 7.68423 20.0107 8.71151C20.1238 9.75516 20.125 11.1056 20.125 13H21.875ZM18.4246 5.6628C18.7748 5.91723 19.0828 6.2252 19.3372 6.57539L20.753 5.54676C20.3906 5.048 19.952 4.60939 19.4532 4.24703L18.4246 5.6628ZM3.875 13C3.875 11.1056 3.8762 9.75516 3.98927 8.71151C4.10057 7.68423 4.31178 7.05853 4.6628 6.57539L3.24703 5.54676C2.64313 6.37795 2.37689 7.34684 2.24946 8.52301C2.1238 9.68281 2.125 11.1446 2.125 13H3.875ZM4.54676 4.24703C4.04801 4.60939 3.60939 5.04801 3.24703 5.54676L4.6628 6.57539C4.91723 6.2252 5.2252 5.91723 5.57539 5.6628L4.54676 4.24703ZM19.0809 15.1973C16.5671 15.5955 14.5955 17.5671 14.1973 20.0809L15.9258 20.3547C16.2053 18.5897 17.5897 17.2053 19.3547 16.9258L19.0809 15.1973ZM9.875 5V4.02893H8.125V5H9.875ZM9.875 4.02893V2H8.125V4.02893H9.875ZM12 3.125C10.8359 3.125 9.83256 3.12489 8.97004 3.15444L9.02996 4.90342C9.85613 4.87511 10.8262 4.875 12 4.875V3.125ZM8.97004 3.15444C7.09505 3.21868 5.6836 3.42107 4.54676 4.24703L5.57539 5.6628C6.24776 5.1743 7.17658 4.96691 9.02996 4.90342L8.97004 3.15444ZM15.875 5V4.02893H14.125V5H15.875ZM15.875 4.02893V2H14.125V4.02893H15.875ZM12 4.875C13.1738 4.875 14.1439 4.87511 14.97 4.90342L15.03 3.15444C14.1674 3.12489 13.1641 3.125 12 3.125V4.875ZM14.97 4.90342C16.8234 4.96691 17.7522 5.1743 18.4246 5.6628L19.4532 4.24703C18.3164 3.42107 16.9049 3.21868 15.03 3.15444L14.97 4.90342ZM20.9711 15.125C20.0934 15.125 19.5504 15.123 19.0809 15.1973L19.3547 16.9258C19.6544 16.8783 20.0292 16.875 20.9711 16.875L20.9711 15.125ZM20.125 13C20.125 14.1738 20.1249 15.1439 20.0966 15.97L21.8456 16.03C21.8751 15.1674 21.875 14.1641 21.875 13H20.125ZM20.0966 15.97C20.0331 17.8234 19.8257 18.7522 19.3372 19.4246L20.753 20.4532C21.5789 19.3164 21.7813 17.905 21.8456 16.03L20.0966 15.97ZM15.875 21.9711C15.875 21.0292 15.8783 20.6544 15.9258 20.3547L14.1973 20.0809C14.123 20.5504 14.125 21.0934 14.125 21.9711L15.875 21.9711ZM12 22.875C13.1641 22.875 14.1674 22.8751 15.03 22.8456L14.97 21.0966C14.1439 21.1249 13.1738 21.125 12 21.125V22.875ZM15.03 22.8456C16.9049 22.7813 18.3164 22.5789 19.4532 21.753L18.4246 20.3372C17.7522 20.8257 16.8234 21.0331 14.97 21.0966L15.03 22.8456Z" fill="currentColor"/>
<path d="M8 9C8 9.55228 7.55228 10 7 10C6.44772 10 6 9.55228 6 9C6 8.44772 6.44772 8 7 8C7.55228 8 8 8.44772 8 9Z" fill="currentColor"/>
<path d="M8 13C8 13.5523 7.55228 14 7 14C6.44772 14 6 13.5523 6 13C6 12.4477 6.44772 12 7 12C7.55228 12 8 12.4477 8 13Z" fill="currentColor"/>
<path d="M13 9C13 9.55228 12.5523 10 12 10C11.4477 10 11 9.55228 11 9C11 8.44772 11.4477 8 12 8C12.5523 8 13 8.44772 13 9Z" fill="currentColor"/>
<path d="M13 13C13 13.5523 12.5523 14 12 14C11.4477 14 11 13.5523 11 13C11 12.4477 11.4477 12 12 12C12.5523 12 13 12.4477 13 13Z" fill="currentColor"/>
<path d="M13 17C13 17.5523 12.5523 18 12 18C11.4477 18 11 17.5523 11 17C11 16.4477 11.4477 16 12 16C12.5523 16 13 16.4477 13 17Z" fill="currentColor"/>
<path d="M18 9C18 9.55228 17.5523 10 17 10C16.4477 10 16 9.55228 16 9C16 8.44772 16.4477 8 17 8C17.5523 8 18 8.44772 18 9Z" fill="currentColor"/>
<path d="M18 13C18 13.5523 17.5523 14 17 14C16.4477 14 16 13.5523 16 13C16 12.4477 16.4477 12 17 12C17.5523 12 18 12.4477 18 13Z" fill="currentColor"/>
<path d="M8 17C8 17.5523 7.55228 18 7 18C6.44772 18 6 17.5523 6 17C6 16.4477 6.44772 16 7 16C7.55228 16 8 16.4477 8 17Z" fill="currentColor"/>
</svg>
