<svg width="24" height="24" viewBox="0 0 24 24" fill="none" xmlns="http://www.w3.org/2000/svg">
<path d="M3.81818 4.92683L5.85192 3.05607C6.5902 2.37693 7.5568 2 8.5599 2H15.1357C16.048 2 16.933 2.3119 17.6437 2.88395L20.1818 4.92683M8 10L9.3884 11.5867C10.5312 12.8928 12.5403 12.9597 13.7675 11.7325L15.5 10M8 22H16C19.3137 22 22 19.3137 22 16V8.439C22 6.2299 20.2091 4.43902 18 4.43902H6C3.79086 4.43902 2 6.2299 2 8.439V16C2 19.3137 4.68629 22 8 22Z" stroke="#33383C" stroke-width="1.75" stroke-linecap="round"/>
</svg>
