<svg width="24" height="24" viewBox="0 0 24 24" fill="none" xmlns="http://www.w3.org/2000/svg">
<path d="M8 9C8 9.55228 8.44772 10 9 10C9.55228 10 10 9.55228 10 9C10 8.44772 9.55228 8 9 8C8.44772 8 8 8.44772 8 9Z" fill="#33383C"/>
<path d="M14 15C14 15.5523 14.4477 16 15 16C15.5523 16 16 15.5523 16 15C16 14.4477 15.5523 14 15 14C14.4477 14 14 14.4477 14 15Z" fill="#33383C"/>
<path d="M8.38128 14.3813C8.03957 14.723 8.03957 15.277 8.38128 15.6187C8.72299 15.9604 9.27701 15.9604 9.61872 15.6187L8.38128 14.3813ZM15.2756 9.96186C15.6173 9.62016 15.6173 9.06614 15.2756 8.72443C14.9339 8.38272 14.3798 8.38272 14.0381 8.72443L15.2756 9.96186ZM5.06107 20.0451L5.57539 19.3372L5.06107 20.0451ZM3.95491 18.9389L4.6628 18.4246L3.95491 18.9389ZM20.0451 18.9389L19.3372 18.4246L20.0451 18.9389ZM18.9389 20.0451L18.4246 19.3372L18.9389 20.0451ZM18.9389 3.95491L18.4246 4.6628L18.9389 3.95491ZM20.0451 5.06107L19.3372 5.57539L20.0451 5.06107ZM5.06107 3.95491L5.57539 4.6628L5.06107 3.95491ZM3.95491 5.06107L4.6628 5.57539L3.95491 5.06107ZM9.61872 15.6187L15.2756 9.96186L14.0381 8.72443L8.38128 14.3813L9.61872 15.6187ZM12 20.125C10.1056 20.125 8.75516 20.1238 7.71151 20.0107C6.68423 19.8994 6.05853 19.6882 5.57539 19.3372L4.54676 20.753C5.37795 21.3569 6.34684 21.6231 7.52301 21.7505C8.68281 21.8762 10.1446 21.875 12 21.875V20.125ZM2.125 12C2.125 13.8554 2.1238 15.3172 2.24946 16.477C2.37689 17.6532 2.64313 18.6221 3.24703 19.4532L4.6628 18.4246C4.31178 17.9415 4.10057 17.3158 3.98927 16.2885C3.8762 15.2448 3.875 13.8944 3.875 12H2.125ZM5.57539 19.3372C5.2252 19.0828 4.91723 18.7748 4.6628 18.4246L3.24703 19.4532C3.60939 19.952 4.048 20.3906 4.54676 20.753L5.57539 19.3372ZM20.125 12C20.125 13.8944 20.1238 15.2448 20.0107 16.2885C19.8994 17.3158 19.6882 17.9415 19.3372 18.4246L20.753 19.4532C21.3569 18.6221 21.6231 17.6532 21.7505 16.477C21.8762 15.3172 21.875 13.8554 21.875 12H20.125ZM12 21.875C13.8554 21.875 15.3172 21.8762 16.477 21.7505C17.6532 21.6231 18.6221 21.3569 19.4532 20.753L18.4246 19.3372C17.9415 19.6882 17.3158 19.8994 16.2885 20.0107C15.2448 20.1238 13.8944 20.125 12 20.125V21.875ZM19.3372 18.4246C19.0828 18.7748 18.7748 19.0828 18.4246 19.3372L19.4532 20.753C19.952 20.3906 20.3906 19.952 20.753 19.4532L19.3372 18.4246ZM12 3.875C13.8944 3.875 15.2448 3.8762 16.2885 3.98927C17.3158 4.10057 17.9415 4.31178 18.4246 4.6628L19.4532 3.24703C18.6221 2.64313 17.6532 2.37689 16.477 2.24946C15.3172 2.1238 13.8554 2.125 12 2.125V3.875ZM21.875 12C21.875 10.1446 21.8762 8.68281 21.7505 7.52301C21.6231 6.34684 21.3569 5.37795 20.753 4.54676L19.3372 5.57539C19.6882 6.05853 19.8994 6.68423 20.0107 7.71151C20.1238 8.75516 20.125 10.1056 20.125 12H21.875ZM18.4246 4.6628C18.7748 4.91723 19.0828 5.2252 19.3372 5.57539L20.753 4.54676C20.3906 4.048 19.952 3.60939 19.4532 3.24703L18.4246 4.6628ZM12 2.125C10.1446 2.125 8.68281 2.1238 7.52301 2.24946C6.34684 2.37689 5.37795 2.64313 4.54676 3.24703L5.57539 4.6628C6.05853 4.31178 6.68423 4.10057 7.71151 3.98927C8.75516 3.8762 10.1056 3.875 12 3.875V2.125ZM3.875 12C3.875 10.1056 3.8762 8.75516 3.98927 7.71151C4.10057 6.68423 4.31178 6.05853 4.6628 5.57539L3.24703 4.54676C2.64313 5.37795 2.37689 6.34684 2.24946 7.52301C2.1238 8.68281 2.125 10.1446 2.125 12H3.875ZM4.54676 3.24703C4.04801 3.60939 3.60939 4.04801 3.24703 4.54676L4.6628 5.57539C4.91723 5.2252 5.2252 4.91723 5.57539 4.6628L4.54676 3.24703Z" fill="#33383C"/>
</svg>
