<svg viewBox="0 0 24 24" fill="none" xmlns="http://www.w3.org/2000/svg">
<path d="M13.55 2.19355V2.11855C13.55 1.76855 13.663 1.45555 13.888 1.18055C14.113 0.905555 14.4 0.768555 14.75 0.768555C15.1 0.768555 15.413 0.880555 15.688 1.10555C15.963 1.33055 16.113 1.63055 16.138 2.00555C16.163 2.38055 16.05 2.69355 15.8 2.94355C15.55 3.19355 15.25 3.31855 14.9 3.31855L14.675 3.39355L14.75 3.50555L14.675 3.91855L14.525 5.11855C14.575 5.16855 14.6 5.21855 14.6 5.26855L14.45 6.01855C14.4 6.11855 14.35 6.19355 14.3 6.24355L14.225 6.54355C14.0941 7.07382 13.944 7.59917 13.775 8.11856V8.26855C13.725 8.51855 13.688 8.71856 13.663 8.86856C13.638 9.01856 13.55 9.26856 13.4 9.61856C13.3 9.81856 13.3 10.1436 13.4 10.5936L13.475 10.6686C13.475 10.8186 13.538 10.9936 13.663 11.1936C13.788 11.3936 13.85 11.5686 13.85 11.7186C13.9 12.7186 13.825 13.5686 13.625 14.2686L13.775 14.7186C14.375 15.0186 14.55 15.3436 14.3 15.6936L14.675 15.8436C15.275 16.1436 15.7 16.4056 15.95 16.6306C16.2 16.8556 16.45 17.0936 16.7 17.3436C16.9 17.3936 17.05 17.4686 17.15 17.5686L17.375 17.6436C18.425 18.3436 19.475 19.1936 20.525 20.1936L20.825 20.4186V20.4936L20.75 20.6436L20.975 20.7936H21.05C21.2 20.8936 21.3 20.9436 21.35 20.9436H21.425C21.475 20.9436 21.525 20.9186 21.575 20.8686L21.725 20.7936C21.825 20.6936 21.925 20.6186 22.025 20.5686H22.325C22.375 20.5686 22.375 20.5936 22.325 20.6436L22.025 20.7936L21.65 21.2436H22.175L22.7 21.3186C22.85 21.2686 22.975 21.2186 23.075 21.1686L23.45 20.9436C23.6 20.8936 23.75 20.9436 23.9 21.0936H23.975C24.025 21.1436 24 21.2186 23.9 21.3186L23 22.1436C22.75 22.3436 22.525 22.4686 22.325 22.5186L21.35 23.1936C21.3 23.2436 21.25 23.2436 21.2 23.1936L20.975 22.8936L20.825 22.5936L20.637 22.3306L20.412 22.0306L20.225 21.8056L20.075 21.6186L19.775 21.3936C19.675 21.3936 19.575 21.3686 19.475 21.3186L18.5 20.5686C18.35 20.5686 18.175 20.4936 17.975 20.3436C17.225 19.6936 16.725 19.2936 16.475 19.1436L16.025 18.8436L15.125 18.6936C14.825 18.6436 14.425 18.4936 13.925 18.2436L13.325 17.9436C12.925 17.7436 12.65 17.6436 12.5 17.6436L12.2 17.4936C12 17.4436 11.85 17.3936 11.75 17.3436L11.6 17.1936C11.5 17.1936 11.4 17.2186 11.3 17.2686L9.8 18.0186L7.925 18.8436C7.425 19.2436 6.95 19.5686 6.5 19.8186L5.675 20.1936L4.4 21.0936C4.3 21.1936 4.2 21.1936 4.1 21.0936L3.95 21.2436C3.8 21.2936 3.7 21.3186 3.65 21.3186L3.35 21.4686V21.6186H3.2L3.05 21.8436C2.95 22.0436 2.85 22.1556 2.75 22.1806C2.65 22.2056 2.588 22.2436 2.563 22.2936C2.54399 22.3346 2.51868 22.3724 2.488 22.4056L2.338 22.5556L2.113 22.7056L1.775 22.6686L1.325 22.7436L1.025 22.8186C0.775 22.8686 0.575 22.8306 0.425 22.7056C0.275 22.5806 0.15 22.3936 0.05 22.1436C-0.05 21.9936 0 21.8686 0.2 21.7686L0.275 21.6936C0.325 21.6436 0.4 21.6186 0.5 21.6186H0.95L1.55 21.3936L1.85 21.3186C1.85 21.2186 1.875 21.1436 1.925 21.0936C1.975 21.0436 2.05 21.0186 2.15 21.0186V20.9436C2.10181 20.8508 2.07612 20.7481 2.075 20.6436C2.025 20.5436 2.012 20.4686 2.038 20.4186C2.063 20.3686 2.088 20.3436 2.113 20.3436H2.15L2.225 20.5686C2.275 20.8186 2.35 20.8936 2.45 20.7936L2.525 20.6436C2.575 20.5436 2.65 20.4936 2.75 20.4936L2.9 20.6436L3.05 20.4936L2.975 20.4186C2.975 20.3686 3 20.3436 3.05 20.3436L3.35 20.0436C3.6 19.7436 3.9 19.4686 4.25 19.2186C4.95 18.6686 5.7 18.2436 6.5 17.9436C6.75 17.6936 7.025 17.5686 7.325 17.5686C7.525 17.2186 7.825 16.8436 8.225 16.4436C8.575 16.1936 8.825 16.0186 8.975 15.9186C9.075 15.7186 9.2 15.6186 9.35 15.6186H9.425L9.575 15.4686C9.675 15.4186 9.75 15.3686 9.8 15.3186V14.9436C9.8 14.6936 9.825 14.4936 9.875 14.3436C9.925 14.1936 10.05 14.1186 10.25 14.1186L10.55 13.8186C10.45 13.6186 10.4 13.3936 10.4 13.1436H10.325C10.225 12.9936 10.175 12.8436 10.175 12.6936C10.025 12.4436 9.925 12.2436 9.875 12.0936H9.65C9.6 12.2436 9.475 12.3436 9.275 12.3936L9.2 12.5436C9 12.8936 8.825 13.1556 8.675 13.3306C8.525 13.5056 8.25 13.7186 7.85 13.9686C7.6 14.2186 7.425 14.4936 7.325 14.7936C7.275 14.9436 7.275 15.0936 7.325 15.2436L7.25 15.3936H7.325C7.325 15.4936 7.35 15.5436 7.4 15.5436H7.475C7.575 15.5936 7.625 15.6556 7.625 15.7306C7.625 15.8056 7.55 15.8306 7.4 15.8056C7.27481 15.7918 7.15702 15.7394 7.063 15.6556C6.988 15.5806 6.925 15.5436 6.875 15.5436L6.65 15.7686C6.55 15.9186 6.45 15.9806 6.35 15.9556C6.25 15.9306 6.225 15.8936 6.275 15.8436L6.35 15.7686C6.4 15.6686 6.4 15.6186 6.35 15.6186L5.75 15.7686C5.7 15.8186 5.638 15.8186 5.563 15.7686C5.488 15.7186 5.5 15.6686 5.6 15.6186L5.975 15.4686C5.975 15.4186 5.95 15.3936 5.9 15.3936C5.7 15.4936 5.5 15.5186 5.3 15.4686L4.925 15.3936L4.85 15.3186C4.85 15.2686 4.875 15.2436 4.925 15.2436C5.125 15.2936 5.375 15.2686 5.675 15.1686L6.2 14.9436L6.8 14.2686L6.875 14.1186C7.075 13.7186 7.288 13.3556 7.513 13.0306C7.71106 12.7352 7.95089 12.4701 8.225 12.2436L8.3 11.9436C8.4 11.7436 8.5 11.5686 8.6 11.4186C8.7 11.2686 8.825 11.0686 8.975 10.8186L9.2 10.5186C9.4 10.2186 9.625 10.0686 9.875 10.0686L10.1 9.84355C10.15 9.79355 10.175 9.71856 10.175 9.61856L10.325 9.46855L10.25 9.39355C9.95 9.14355 9.8 8.91855 9.8 8.71855C9.75 8.36855 9.863 8.06855 10.138 7.81855C10.413 7.56855 10.688 7.45555 10.963 7.48055C11.238 7.50555 11.45 7.59355 11.6 7.74355L11.75 7.89355C11.8 7.89355 11.825 7.91855 11.825 7.96855L12.125 8.11856V8.34355C12.225 8.44355 12.275 8.51855 12.275 8.56855C12.375 8.41855 12.525 8.24355 12.725 8.04355L13.1 6.84355C13.1 6.64355 13.15 6.44355 13.25 6.24355L13.4 6.01855V5.86855L13.625 4.96855H13.775L14 4.06855C14.0503 3.89716 14.0503 3.71495 14 3.54355L13.7 2.79355L13.55 2.19355Z" fill="currentColor"/>
</svg>
