<svg width="24" height="24" viewBox="0 0 24 24" fill="none" xmlns="http://www.w3.org/2000/svg">
<path d="M12.169 10.3055L13.28 8.36852L17.054 8.12652L17.186 7.89052L13.698 7.64852L14.518 6.23452H20.988C22.978 6.23452 24.448 6.94952 23.875 9.03452C23.705 9.67252 22.896 11.2675 20.519 11.9335C21.026 11.9935 22.279 12.5495 22.059 13.9905C21.675 16.5485 18.369 17.7645 16.526 17.7645L8.885 17.7705L8.505 16.2905L12.51 16.0105L12.647 15.7735L8.301 15.5095L7.834 13.7545L14.012 13.3915L14.149 13.1605L3.053 12.4675L3.587 11.5425L15.535 10.7675L15.673 10.5365L12.169 10.3055ZM17.169 10.6905L18.269 10.6845C19.007 10.6795 19.771 10.3445 20.052 9.66652C20.311 9.03452 19.964 8.49552 19.502 8.50052H18.435L17.169 10.6905ZM15.899 12.8855L14.573 15.1905H15.838C16.427 15.1905 17.478 14.8985 17.802 14.0625C18.104 13.2815 17.549 12.8855 17.164 12.8855H15.898H15.899ZM6.26 16.4445L5.49 17.7595L0 17.7695L0.534 16.8465L6.26 16.4445ZM6.645 6.22852L11.062 6.23452L11.398 7.48252L6.122 7.15252L6.645 6.22852ZM11.645 8.47352L12.129 10.3055L4.587 9.81052L5.115 8.89052L11.645 8.47352ZM7.805 13.7545L6.848 15.4155L1.528 15.1135L2.062 14.1895L7.805 13.7545Z" fill="#212427"/>
</svg>
