<svg width="24" height="24" viewBox="0 0 24 24" fill="none" xmlns="http://www.w3.org/2000/svg">
<path d="M24.0001 7.7998L6.44206 15.2758C4.98606 15.8918 3.76306 16.2008 2.77406 16.2008C1.65406 16.2008 0.841058 15.8088 0.337058 15.0238C0.020058 14.5198 -0.072942 13.8808 0.057058 13.1058C0.187058 12.3308 0.533058 11.5058 1.09306 10.6278C1.56006 9.9178 2.32506 8.9848 3.39006 7.8278C3.02882 8.39647 2.76393 9.02086 2.60606 9.6758C2.32606 10.8708 2.57806 11.7478 3.36206 12.3078C3.73506 12.5688 4.24806 12.6998 4.90206 12.6998C5.42406 12.6998 6.01206 12.6158 6.66606 12.4478L24.0001 7.7998Z" fill="#212427"/>
</svg>
