<svg width="24" height="24" viewBox="0 0 24 24" fill="none" xmlns="http://www.w3.org/2000/svg">
<path d="M23.8449 3.00844C23.4279 2.47544 22.6989 2.90244 22.3779 3.08844C20.0939 4.43444 19.7569 6.80444 18.9609 8.16544C18.3349 9.25544 17.3089 10.0554 16.3809 10.1174C15.6949 10.1664 14.9509 10.0334 14.2129 9.71244C12.4059 8.93144 11.4329 7.92044 11.1959 7.74244C10.7089 7.37244 6.9659 3.72744 3.9159 3.57844C3.9159 3.57844 3.5439 2.82844 3.4509 2.81544C3.2289 2.79044 3.0009 3.26644 2.8349 3.31644C2.6849 3.36944 2.4219 2.80444 2.2699 2.82944C2.1169 2.84944 1.9679 3.41544 1.6699 3.70644C1.4499 3.91944 1.1839 3.90644 1.0329 4.16944C0.980897 4.26544 0.998897 4.43444 0.939897 4.58944C0.812897 4.90944 0.388897 4.94343 0.384897 5.28643C0.384897 5.66743 0.741897 5.74044 1.0539 6.00644C1.3019 6.21844 1.3189 6.36844 1.6079 6.46744C1.8659 6.55544 2.2399 6.28044 2.5719 6.37944C2.8489 6.46044 3.1149 6.51944 3.1739 6.80244C3.2279 7.05844 3.1739 7.46044 2.8339 7.41544C2.7219 7.40044 2.2359 7.24144 1.6359 7.30544C0.910897 7.38244 0.0828967 7.61444 0.00189671 8.41544C-0.0391033 8.86244 0.515897 9.38544 1.0569 9.28144C1.4279 9.21044 1.2529 8.77543 1.4559 8.56543C1.7229 8.29543 3.2279 9.50944 4.6279 9.50944C5.2209 9.50944 5.6589 9.35944 6.0949 8.90444C6.1349 8.87544 6.1879 8.80244 6.2499 8.79444C6.31943 8.81247 6.38537 8.84223 6.4449 8.88244C7.5759 9.77944 8.4289 11.5824 12.5749 11.6034C13.1569 11.6104 13.8249 11.8824 14.3709 12.3804C14.8509 12.8134 15.1349 13.5054 15.4079 14.2054C15.8259 15.2584 16.5689 16.2744 17.6999 17.4084C17.7599 17.4764 18.6899 18.1884 18.7599 18.2414C18.7719 18.2514 18.8439 18.4084 18.8129 18.4964C18.7929 19.1864 18.6899 21.1664 20.1779 21.2494C20.5439 21.2694 20.4529 21.0184 20.4529 20.8394C20.4479 20.4984 20.3879 20.1544 20.5659 19.7994C20.8189 19.3214 20.0399 19.0904 20.0569 18.0434C20.0759 17.2594 19.4119 17.3924 19.0729 16.7934C18.8829 16.4504 18.7049 16.2614 18.7229 15.8474C18.7959 13.4674 18.2059 11.8994 17.9179 11.5204C17.6909 11.2264 17.4949 11.1174 17.7109 10.9804C18.9509 10.1654 19.2359 9.40644 19.2359 9.40644C19.8959 7.86544 20.4919 6.46144 21.3109 5.83644C21.4769 5.71644 21.8999 5.39644 22.1629 5.27644C22.9259 4.91444 23.3359 4.69844 23.5509 4.48844C23.9069 4.15144 24.1859 3.43544 23.8449 3.00844Z" fill="#212427"/>
</svg>
