<svg width="24" height="24" viewBox="0 0 24 24" fill="none" xmlns="http://www.w3.org/2000/svg">
<path d="M6.68975 7C6.89327 7 7.07468 7.08535 7.23396 7.25605C7.40209 7.41726 7.48615 7.62589 7.48615 7.88193C7.48615 7.96728 7.47288 8.05737 7.44633 8.1522C7.42864 8.23755 7.39324 8.3229 7.34015 8.40825L4.3271 13.0313L4.56602 12.0498V16.1323C4.56602 16.3788 4.48638 16.5875 4.3271 16.7582C4.17667 16.9194 3.99969 17 3.79617 17C3.57494 17 3.3847 16.9194 3.22542 16.7582C3.07499 16.5875 2.99977 16.3788 2.99977 16.1323V12.1636L3.10596 12.6188L0.23892 8.53627C0.150431 8.41296 0.0884891 8.29445 0.0530933 8.18065C0.0176974 8.06686 0 7.96255 0 7.86771C0 7.61166 0.0929132 7.40303 0.27874 7.24182C0.464566 7.08061 0.654817 7 0.849492 7C1.09726 7 1.31406 7.13276 1.49989 7.39829L4.04836 11.1679L3.67671 11.111L6.02609 7.42674C6.21191 7.14225 6.43314 7 6.68975 7ZM14.955 7.04267C15.1498 7.04267 15.34 7.11854 15.5258 7.27027C15.7205 7.422 15.8178 7.62589 15.8178 7.88193C15.8178 8.06212 15.7559 8.24229 15.632 8.42248L10.5483 15.4211L10.389 15.3642H14.8223C15.0525 15.3642 15.2427 15.44 15.3931 15.5917C15.5523 15.734 15.632 15.9284 15.632 16.175C15.632 16.4121 15.5523 16.6112 15.3931 16.7724C15.2427 16.9242 15.0525 17 14.8223 17H8.99537C8.7653 17 8.5662 16.9147 8.39807 16.744C8.22994 16.5637 8.14588 16.3694 8.14588 16.1607C8.14588 15.9805 8.20782 15.8004 8.3317 15.6202L13.4286 8.59317L13.5481 8.67852H9.5263C9.29623 8.67852 9.10156 8.60269 8.94228 8.45092C8.79185 8.29916 8.71663 8.10004 8.71663 7.85348C8.71663 7.60693 8.79185 7.41252 8.94228 7.27027C9.10156 7.11854 9.29623 7.04267 9.5263 7.04267H14.955ZM23.2036 7C23.4072 7 23.5885 7.08535 23.7478 7.25605C23.916 7.41726 24 7.62589 24 7.88193C24 7.96728 23.9867 8.05737 23.9602 8.1522C23.9425 8.23755 23.9071 8.3229 23.854 8.40825L20.8409 13.0313L21.0799 12.0498V16.1323C21.0799 16.3788 21.0002 16.5875 20.8409 16.7582C20.6906 16.9194 20.5136 17 20.31 17C20.0889 17 19.8985 16.9194 19.7393 16.7582C19.5889 16.5875 19.5136 16.3788 19.5136 16.1323V12.1636L19.6198 12.6188L16.7528 8.53627C16.6643 8.41296 16.6024 8.29445 16.5669 8.18065C16.5316 8.06686 16.5138 7.96255 16.5138 7.86771C16.5138 7.61166 16.6068 7.40303 16.7926 7.24182C16.9784 7.08061 17.1687 7 17.3633 7C17.6111 7 17.8279 7.13276 18.0137 7.39829L20.5622 11.1679L20.1906 11.111L22.5399 7.42674C22.7258 7.14225 22.947 7 23.2036 7Z" fill="#212427"/>
<path d="M9 12H15" stroke="#212427" stroke-linecap="round"/>
</svg>
