<svg width="24" height="24" viewBox="0 0 24 24" fill="none" xmlns="http://www.w3.org/2000/svg">
<path d="M6.77295 8.86133C6.97228 8.86133 7.14995 8.93933 7.30595 9.09533C7.47062 9.24266 7.55295 9.43333 7.55295 9.66733C7.55295 9.74533 7.53995 9.82766 7.51395 9.91433C7.49662 9.99233 7.46195 10.0703 7.40995 10.1483L4.45895 14.3733L4.69295 13.4763V17.2073C4.69295 17.4326 4.61495 17.6233 4.45895 17.7793C4.31162 17.9266 4.13828 18.0003 3.93895 18.0003C3.72228 18.0003 3.53595 17.9266 3.37995 17.7793C3.23262 17.6233 3.15895 17.4326 3.15895 17.2073V13.5803L3.26295 13.9963L0.454947 10.2653C0.36828 10.1526 0.307614 10.0443 0.272947 9.94033C0.23828 9.83633 0.220947 9.741 0.220947 9.65433C0.220947 9.42033 0.311947 9.22966 0.493947 9.08233C0.675947 8.935 0.86228 8.86133 1.05295 8.86133C1.29562 8.86133 1.50795 8.98266 1.68995 9.22533L4.18595 12.6703L3.82195 12.6183L6.12295 9.25133C6.30495 8.99133 6.52162 8.86133 6.77295 8.86133ZM14.868 8.90033C15.0587 8.90033 15.245 8.96966 15.427 9.10833C15.6177 9.247 15.713 9.43333 15.713 9.66733C15.713 9.832 15.6524 9.99666 15.531 10.1613L10.552 16.5573L10.396 16.5053H14.738C14.9634 16.5053 15.1497 16.5746 15.297 16.7133C15.453 16.8433 15.531 17.021 15.531 17.2463C15.531 17.463 15.453 17.645 15.297 17.7923C15.1497 17.931 14.9634 18.0003 14.738 18.0003H9.03109C8.80576 18.0003 8.61076 17.9223 8.44609 17.7663C8.28142 17.6016 8.19909 17.424 8.19909 17.2333C8.19909 17.0686 8.25976 16.904 8.38109 16.7393L13.373 10.3173L13.49 10.3953H9.55109C9.32576 10.3953 9.13509 10.326 8.97909 10.1873C8.83176 10.0486 8.75809 9.86666 8.75809 9.64133C8.75809 9.416 8.83176 9.23833 8.97909 9.10833C9.13509 8.96966 9.32576 8.90033 9.55109 8.90033H14.868ZM22.9467 8.86133C23.1461 8.86133 23.3237 8.93933 23.4797 9.09533C23.6444 9.24266 23.7267 9.43333 23.7267 9.66733C23.7267 9.74533 23.7137 9.82766 23.6877 9.91433C23.6704 9.99233 23.6357 10.0703 23.5837 10.1483L20.6327 14.3733L20.8667 13.4763V17.2073C20.8667 17.4326 20.7887 17.6233 20.6327 17.7793C20.4854 17.9266 20.3121 18.0003 20.1127 18.0003C19.8961 18.0003 19.7097 17.9266 19.5537 17.7793C19.4064 17.6233 19.3327 17.4326 19.3327 17.2073V13.5803L19.4367 13.9963L16.6287 10.2653C16.5421 10.1526 16.4814 10.0443 16.4467 9.94033C16.4121 9.83633 16.3947 9.741 16.3947 9.65433C16.3947 9.42033 16.4857 9.22966 16.6677 9.08233C16.8497 8.935 17.0361 8.86133 17.2267 8.86133C17.4694 8.86133 17.6817 8.98266 17.8637 9.22533L20.3597 12.6703L19.9957 12.6183L22.2967 9.25133C22.4787 8.99133 22.6954 8.86133 22.9467 8.86133Z" fill="#212427"/>
<path d="M9 13.5H15" stroke="#212427" stroke-linecap="round"/>
</svg>
