<svg viewBox="0 0 24 24" fill="none" xmlns="http://www.w3.org/2000/svg">
<path d="M11.936 17.9522C11.936 17.3082 12.453 16.7922 13.098 16.7922C13.742 16.7922 14.258 17.3082 14.258 17.9522C14.2585 18.1048 14.2289 18.2559 14.1708 18.3969C14.1127 18.538 14.0273 18.6661 13.9195 18.774C13.8117 18.8819 13.6836 18.9674 13.5426 19.0257C13.4016 19.0839 13.2505 19.1136 13.098 19.1132C12.9454 19.1139 12.7942 19.0844 12.653 19.0263C12.5119 18.9683 12.3836 18.8829 12.2756 18.7751C12.1676 18.6673 12.082 18.5391 12.0237 18.3981C11.9654 18.257 11.9356 18.1049 11.936 17.9522ZM16.66 17.9532C16.66 17.3082 17.177 16.7912 17.821 16.7912C18.465 16.7912 18.982 17.3082 18.982 17.9522C18.982 18.5962 18.465 19.1132 17.822 19.1132C17.6694 19.1139 17.5182 19.0844 17.377 19.0263C17.2359 18.9683 17.1076 18.8829 16.9996 18.7751C16.8916 18.6673 16.806 18.5391 16.7477 18.3981C16.6894 18.257 16.6596 18.1059 16.66 17.9532ZM5.71 17.9532C5.71 17.3082 6.227 16.7912 6.871 16.7912C7.515 16.7912 8.031 17.3082 8.031 17.9522C8.031 18.5962 7.515 19.1132 6.871 19.1132C6.71847 19.1138 6.56734 19.0841 6.42631 19.026C6.28528 18.9679 6.15713 18.8825 6.04923 18.7747C5.94133 18.6669 5.85581 18.5388 5.79759 18.3979C5.73937 18.2569 5.7096 18.1058 5.71 17.9532ZM0.986 17.9532C0.986 17.3082 1.503 16.7912 2.147 16.7912C2.791 16.7912 3.308 17.3082 3.308 17.9522C3.30853 18.1049 3.27886 18.2561 3.2207 18.3972C3.16254 18.5383 3.07704 18.6665 2.96913 18.7744C2.86122 18.8823 2.73302 18.9678 2.59192 19.0259C2.45082 19.0841 2.29961 19.1138 2.147 19.1132C1.99456 19.1136 1.84354 19.0839 1.70262 19.0257C1.5617 18.9676 1.43367 18.8822 1.32587 18.7744C1.21808 18.6666 1.13265 18.5385 1.07449 18.3976C1.01634 18.2567 0.985604 18.1057 0.986 17.9532ZM10.537 15.9012H9.527V19.9642H10.537V15.9012ZM3.3 19.9642H4.31V15.9012H3.3V16.2272C2.94794 15.9822 2.52893 15.8516 2.1 15.8532C0.938 15.8532 0 16.7912 0 17.9532C0 19.1212 0.938 20.0522 2.1 20.0522C2.545 20.0522 2.958 19.9172 3.3 19.6782V19.9642ZM18.974 19.9642H19.984V15.9012H18.974V16.2272C18.6219 15.9822 18.2029 15.8516 17.774 15.8532C16.612 15.8532 15.674 16.7912 15.674 17.9532C15.6731 18.2292 15.7268 18.5027 15.832 18.7578C15.9372 19.013 16.0919 19.2448 16.2871 19.4399C16.4823 19.635 16.7142 19.7895 16.9693 19.8946C17.2245 19.9997 17.498 20.0533 17.774 20.0522C18.219 20.0522 18.632 19.9172 18.974 19.6782V19.9642ZM20.358 18.6442C20.39 19.4642 21.09 20.0442 22.258 20.0442C23.213 20.0442 24 19.6302 24 18.7162C24 18.0802 23.642 17.7062 22.815 17.5462L22.171 17.4202C21.757 17.3402 21.471 17.2602 21.471 17.0142C21.471 16.7442 21.749 16.6242 22.099 16.6242C22.609 16.6242 22.815 16.8792 22.831 17.1812H23.849C23.793 16.3862 23.157 15.8532 22.131 15.8532C21.074 15.8532 20.445 16.4332 20.445 17.1892C20.445 18.1112 21.193 18.2622 21.837 18.3822L22.37 18.4772C22.752 18.5492 22.919 18.6602 22.919 18.8832C22.919 19.0822 22.728 19.2802 22.274 19.2802C21.614 19.2802 21.4 18.9382 21.392 18.6442H20.358ZM8.024 14.5172V16.2272C7.67194 15.9822 7.25293 15.8516 6.824 15.8532C5.662 15.8532 4.724 16.7912 4.724 17.9532C4.724 19.1212 5.662 20.0522 6.824 20.0522C7.268 20.0522 7.682 19.9172 8.024 19.6782V19.9642H9.034V14.5172H8.024ZM14.25 14.5172V16.2272C13.8979 15.9822 13.4789 15.8516 13.05 15.8532C11.889 15.8532 10.95 16.7912 10.95 17.9532C10.9491 18.2292 11.0028 18.5027 11.108 18.7578C11.2132 19.013 11.3679 19.2448 11.5631 19.4399C11.7583 19.635 11.9902 19.7895 12.2453 19.8946C12.5005 19.9997 12.774 20.0533 13.05 20.0522C13.495 20.0522 13.908 19.9172 14.25 19.6782V19.9642H15.26V14.5172H14.25ZM2.624 13.3172L3.308 14.5172H8.024L6.155 11.2882L2.625 13.3162L2.624 13.3172ZM10.537 15.5272V14.5172H14.25L10.29 7.66224L6.751 9.69024L9.527 14.5172V15.5272H10.537ZM15.754 14.5172H20.477L14.37 3.94824L10.839 5.98424L15.754 14.5172Z" fill="currentColor"/>
</svg>
