<svg viewBox="0 0 24 24" fill="none" xmlns="http://www.w3.org/2000/svg">
<path d="M11.37 19.125C10.8868 19.125 10.495 19.5168 10.495 20C10.495 20.4832 10.8868 20.875 11.37 20.875V19.125ZM20.9182 10.8995L20.0515 11.0198L20.0515 11.0198L20.9182 10.8995ZM21.0929 16.8297L21.9072 17.1499L21.9072 17.1499L21.0929 16.8297ZM18.8921 19.3573L18.4629 18.5947L18.4629 18.5947L18.8921 19.3573ZM17.69 4.45483L18.0546 3.65943L18.0546 3.65943L17.69 4.45483ZM19.8217 6.31092L19.084 6.78151L19.084 6.78151L19.8217 6.31092ZM6.67429 4.45483L6.30965 3.65943L6.30965 3.65943L6.67429 4.45483ZM2.57941 10.7791C2.51293 11.2577 2.84707 11.6997 3.32572 11.7661C3.80438 11.8326 4.24629 11.4985 4.31277 11.0198L2.57941 10.7791ZM4.54259 6.31092L3.80491 5.84034L3.80491 5.84034L4.54259 6.31092ZM4.98972 7.7368L5.60844 7.11808L5.59744 7.10708L5.58605 7.09647L4.98972 7.7368ZM19.99 6.87868L19.3713 6.25996L19.3713 6.25996L19.99 6.87868ZM19.1319 7.7368L18.5131 7.11808L18.5131 7.11808L19.1319 7.7368ZM2 17.125C1.51675 17.125 1.125 17.5168 1.125 18C1.125 18.4832 1.51675 18.875 2 18.875V17.125ZM8 18.875C8.48325 18.875 8.875 18.4832 8.875 18C8.875 17.5168 8.48325 17.125 8 17.125V18.875ZM2 14.125C1.51675 14.125 1.125 14.5168 1.125 15C1.125 15.4832 1.51675 15.875 2 15.875V14.125ZM5 15.875C5.48325 15.875 5.875 15.4832 5.875 15C5.875 14.5168 5.48325 14.125 5 14.125V15.875ZM11.37 4.875H12.9942V3.125H11.37V4.875ZM12.9942 19.125H11.37V20.875H12.9942V19.125ZM20.0515 11.0198C20.2717 12.6053 20.4284 13.7394 20.4751 14.6307C20.5213 15.5133 20.4525 16.0672 20.2786 16.5095L21.9072 17.1499C22.2128 16.3726 22.2747 15.5316 22.2227 14.5391C22.1712 13.5553 22.0008 12.3341 21.7848 10.7791L20.0515 11.0198ZM12.9942 20.875C14.5641 20.875 15.7972 20.8758 16.7788 20.7914C17.7689 20.7064 18.5935 20.5294 19.3213 20.1198L18.4629 18.5947C18.0487 18.8279 17.5096 18.9722 16.629 19.0479C15.7398 19.1242 14.5949 19.125 12.9942 19.125V20.875ZM20.2786 16.5095C19.9313 17.3927 19.29 18.1292 18.4629 18.5947L19.3213 20.1198C20.4992 19.4568 21.4126 18.4078 21.9072 17.1499L20.2786 16.5095ZM12.9942 4.875C14.2421 4.875 15.1289 4.8756 15.829 4.92929C16.5182 4.98215 16.9605 5.08297 17.3253 5.25024L18.0546 3.65943C17.4273 3.37186 16.7562 3.24527 15.9628 3.18442C15.1804 3.1244 14.2154 3.125 12.9942 3.125V4.875ZM17.3253 5.25024C18.0466 5.58089 18.6573 6.11257 19.084 6.78151L20.5594 5.84034C19.9516 4.88759 19.0819 4.13036 18.0546 3.65943L17.3253 5.25024ZM11.37 3.125C10.1489 3.125 9.18389 3.1244 8.40141 3.18442C7.60803 3.24527 6.93695 3.37186 6.30965 3.65943L7.03892 5.25024C7.40379 5.08297 7.84606 4.98215 8.53524 4.92929C9.23534 4.8756 10.1221 4.875 11.37 4.875V3.125ZM4.31277 11.0198C4.58148 9.08512 4.73098 8.0507 5.01489 7.31503L3.38225 6.68497C3.00725 7.65666 2.83482 8.94015 2.57941 10.7791L4.31277 11.0198ZM5.01489 7.31503C5.09386 7.11041 5.18084 6.93738 5.28027 6.78151L3.80491 5.84034C3.63611 6.10494 3.49841 6.38397 3.38225 6.68497L5.01489 7.31503ZM6.30965 3.65943C5.28236 4.13036 4.41269 4.88759 3.80491 5.84034L5.28027 6.78151C5.70701 6.11257 6.31763 5.58089 7.03892 5.25024L6.30965 3.65943ZM5.58605 7.09647L4.7949 6.35968L3.60224 7.64032L4.39339 8.37712L5.58605 7.09647ZM19.3713 6.25996L18.5131 7.11808L19.7506 8.35552L20.6087 7.4974L19.3713 6.25996ZM4.371 8.35552C6.02018 10.0047 7.31799 11.3051 8.46785 12.1824C9.6379 13.0752 10.757 13.6118 12.0608 13.6118V11.8618C11.2935 11.8618 10.5437 11.5651 9.52936 10.7912C8.49479 10.0018 7.2926 8.80224 5.60844 7.11808L4.371 8.35552ZM18.5131 7.11808C16.829 8.80224 15.6268 10.0018 14.5922 10.7912C13.5778 11.5651 12.8281 11.8618 12.0608 11.8618V13.6118C13.3646 13.6118 14.4837 13.0752 15.6537 12.1824C16.8036 11.3051 18.1014 10.0047 19.7506 8.35552L18.5131 7.11808ZM2 18.875H8V17.125H2V18.875ZM2 15.875H5V14.125H2V15.875ZM21.7848 10.7791C21.509 8.79282 21.331 7.44825 20.8774 6.43315L19.2797 7.14713C19.6064 7.87825 19.759 8.91402 20.0515 11.0198L21.7848 10.7791ZM20.8774 6.43315C20.7847 6.22572 20.6798 6.02911 20.5594 5.84034L19.084 6.78151C19.1554 6.89339 19.22 7.01357 19.2797 7.14713L20.8774 6.43315ZM20.6087 7.4974L20.6972 7.40886L19.4598 6.17142L19.3713 6.25996L20.6087 7.4974Z" fill="currentColor"/>
</svg>
