<svg viewBox="0 0 24 24" fill="none" xmlns="http://www.w3.org/2000/svg">
<path d="M11.5312 19.0199L11.1673 18.0884L11.5312 19.0199ZM7.47478 19.7988L6.97478 20.6648L6.97478 20.6648L7.47478 19.7988ZM6.12116 15.8964L5.13256 16.047L6.12116 15.8964ZM6.61146 13.2941L7.47749 13.7941L6.61146 13.2941ZM6.02731 14.5314L5.0446 14.3462L5.0446 14.3462L6.02731 14.5314ZM13.5397 17.2941L14.4057 17.7941L14.4057 17.7941L13.5397 17.2941ZM12.7602 18.4186L13.4119 19.1771L13.4119 19.1771L12.7602 18.4186ZM10.4099 6.71503L9.54387 6.21503L10.4099 6.71503ZM16.4721 10.215L12.6736 16.7941L14.4057 17.7941L18.2041 11.215L16.4721 10.215ZM7.47749 13.7941L11.2759 7.21503L9.54387 6.21503L5.74544 12.7941L7.47749 13.7941ZM11.1673 18.0884C10.0635 18.5196 9.33651 18.801 8.78167 18.9307C8.25296 19.0542 8.07497 18.9906 7.97478 18.9328L6.97478 20.6648C7.70707 21.0876 8.48263 21.0544 9.23668 20.8782C9.9646 20.7082 10.8495 20.3598 11.8951 19.9513L11.1673 18.0884ZM5.13256 16.047C5.30158 17.1567 5.44234 18.0972 5.65902 18.8127C5.88347 19.5538 6.2425 20.242 6.97478 20.6648L7.97478 18.9328C7.8746 18.8749 7.73053 18.7526 7.57316 18.2329C7.408 17.6876 7.28819 16.9173 7.10976 15.7458L5.13256 16.047ZM5.74544 12.7941C5.43214 13.3368 5.14648 13.8055 5.0446 14.3462L7.01002 14.7165C7.03427 14.5878 7.09601 14.4549 7.47749 13.7941L5.74544 12.7941ZM7.10976 15.7458C6.99489 14.9916 6.98577 14.8452 7.01002 14.7165L5.0446 14.3462C4.94272 14.887 5.03822 15.4275 5.13256 16.047L7.10976 15.7458ZM12.6736 16.7941C12.2922 17.4549 12.2079 17.5748 12.1085 17.6602L13.4119 19.1771C13.8293 18.8185 14.0924 18.3368 14.4057 17.7941L12.6736 16.7941ZM11.8951 19.9513C12.4787 19.7233 12.9946 19.5357 13.4119 19.1771L12.1085 17.6602C12.0092 17.7455 11.8779 17.8108 11.1673 18.0884L11.8951 19.9513ZM15.374 6.11695C16.215 6.60249 16.7575 6.91819 17.127 7.20329C17.4735 7.47066 17.5441 7.62017 17.572 7.72416L19.5038 7.20652C19.3173 6.51031 18.8725 6.02402 18.3489 5.61993C17.8482 5.23358 17.166 4.84217 16.374 4.3849L15.374 6.11695ZM18.2041 11.215C18.6614 10.423 19.0565 9.74294 19.2969 9.15803C19.5483 8.54627 19.6904 7.90273 19.5038 7.20652L17.572 7.72416C17.5998 7.82815 17.6134 7.99295 17.447 8.39774C17.2696 8.82937 16.9576 9.37405 16.4721 10.215L18.2041 11.215ZM16.374 4.3849C15.582 3.92763 14.9019 3.53254 14.317 3.29214C13.7052 3.04071 13.0617 2.89865 12.3655 3.0852L12.8831 5.01705C12.9871 4.98919 13.1519 4.97563 13.5567 5.14199C13.9883 5.3194 14.533 5.63141 15.374 6.11695L16.374 4.3849ZM11.2759 7.21503C11.7615 6.37405 12.0772 5.8315 12.3623 5.46205C12.6296 5.11557 12.7791 5.04492 12.8831 5.01705L12.3655 3.0852C11.6693 3.27175 11.183 3.71654 10.7789 4.24017C10.3926 4.74082 10.0011 5.42301 9.54387 6.21503L11.2759 7.21503ZM17.8381 9.849L10.9099 5.849L9.9099 7.58105L16.8381 11.5811L17.8381 9.849Z" fill="currentColor"/>
</svg>
