<svg viewBox="0 0 24 24" fill="none" xmlns="http://www.w3.org/2000/svg">
<path d="M15.5842 10.4706C15.8441 10.148 15.7933 9.67589 15.4708 9.416C15.1482 9.15611 14.6761 9.20689 14.4162 9.52943L12.3947 12.0382C11.9796 12.5533 11.7177 12.8755 11.4997 13.0791C11.3973 13.1747 11.3319 13.2173 11.2943 13.2361C11.2663 13.2501 11.2563 13.25 11.2509 13.25H11.2495C11.2441 13.25 11.2341 13.2501 11.2061 13.2361C11.1685 13.2173 11.1031 13.1747 11.0007 13.0791C10.7827 12.8755 10.5208 12.5533 10.1057 12.0382L9.5842 11.391C9.32431 11.0685 8.85216 11.0177 8.52963 11.2776C8.20709 11.5375 8.15631 12.0096 8.4162 12.3321L8.97027 13.0198C9.34278 13.4822 9.67143 13.8901 9.97685 14.1753C10.3048 14.4816 10.7125 14.75 11.2502 14.75C11.7879 14.75 12.1956 14.4816 12.5236 14.1753C12.829 13.8901 13.1576 13.4822 13.5301 13.0198L15.5842 10.4706Z" fill="currentColor"/>
<path fill-rule="evenodd" clip-rule="evenodd" d="M9.56308 1.25C8.02129 1.25 6.77141 2.49987 6.77141 4.04167C6.77141 4.75503 6.19312 5.33333 5.47975 5.33333H5.17088C3.59483 5.33333 2.19091 6.55273 2.27642 8.24648C2.37794 10.2575 2.82459 13.3918 4.45375 16.3608C4.91004 17.1923 5.51943 18.0092 6.1782 18.7703L6.22779 18.8276C7.17546 19.9226 7.96562 20.8356 8.81509 21.4579C9.72878 22.1273 10.704 22.4607 12.0003 22.4607C13.2965 22.4607 14.2717 22.1273 15.1854 21.4579C16.0349 20.8356 16.825 19.9226 17.7727 18.8276L17.8223 18.7703C18.4811 18.0092 19.0905 17.1923 19.5468 16.3608C21.2301 13.2931 21.6498 9.82667 21.7326 7.66561C21.7972 5.97999 20.4033 4.75 18.8184 4.75H18.2291C17.6768 4.75 17.2291 4.30228 17.2291 3.75C17.2291 2.36929 16.1098 1.25 14.7291 1.25H9.56308ZM8.27141 4.04167C8.27141 3.3283 8.84971 2.75 9.56308 2.75H14.7291C15.2814 2.75 15.7291 3.19772 15.7291 3.75C15.7291 5.13071 16.8484 6.25 18.2291 6.25H18.8184C19.6561 6.25 20.2619 6.8731 20.2337 7.60819C20.1546 9.67293 19.752 12.8686 18.2317 15.6392C17.8428 16.348 17.3042 17.0768 16.6881 17.7886C15.678 18.9557 14.9959 19.7373 14.2989 20.2479C13.6514 20.7223 12.9891 20.9607 12.0003 20.9607C11.0114 20.9607 10.3491 20.7223 9.70155 20.2479C9.00457 19.7373 8.32248 18.9557 7.31237 17.7886C6.69628 17.0768 6.15772 16.348 5.76878 15.6392C4.29029 12.9448 3.86996 10.0616 3.77451 8.17085C3.73819 7.45149 4.33075 6.83333 5.17088 6.83333H5.47975C7.02154 6.83333 8.27141 5.58346 8.27141 4.04167Z" fill="currentColor"/>
</svg>
