<svg viewBox="0 0 24 24" fill="none" xmlns="http://www.w3.org/2000/svg">
<path d="M8.34175 17.2679C7.8585 17.2679 7.46675 17.6596 7.46675 18.1429C7.46675 18.6261 7.8585 19.0179 8.34175 19.0179V17.2679ZM15.1783 16.5234L14.4704 16.0091L14.4704 16.0091L15.1783 16.5234ZM14.3092 17.3926L13.7948 16.6847L13.7948 16.6847L14.3092 17.3926ZM14.3092 4.75029L14.8235 4.0424L14.8235 4.0424L14.3092 4.75029ZM15.1783 5.61942L14.4704 6.13373L14.4704 6.13373L15.1783 5.61942ZM3.40513 4.75025L2.89082 4.04236L2.89082 4.04236L3.40513 4.75025ZM2.66071 12.6429C2.66071 12.1596 2.26896 11.7679 1.78571 11.7679C1.30247 11.7679 0.910714 12.1596 0.910714 12.6429H2.66071ZM2.536 5.61938L1.82811 5.10507L1.82811 5.10507L2.536 5.61938ZM1 9.41068C0.516751 9.41068 0.125 9.80243 0.125 10.2857C0.125 10.7689 0.516751 11.1607 1 11.1607V9.41068ZM5.71429 11.1607C6.19753 11.1607 6.58929 10.7689 6.58929 10.2857C6.58929 9.80243 6.19753 9.41068 5.71429 9.41068V11.1607ZM1 7.05353C0.516751 7.05353 0.125 7.44528 0.125 7.92853C0.125 8.41178 0.516751 8.80353 1 8.80353V7.05353ZM3.35714 8.80353C3.84039 8.80353 4.23214 8.41178 4.23214 7.92853C4.23214 7.44528 3.84039 7.05353 3.35714 7.05353V8.80353ZM1.48541 5.67951C1.27563 6.11486 1.45849 6.63783 1.89384 6.8476C2.32918 7.05738 2.85215 6.87452 3.06193 6.43917L1.48541 5.67951ZM15.4406 6.05938L14.6524 6.43921L14.6524 6.43921L15.4406 6.05938ZM15.6852 6.75L16.5339 6.53676L16.5339 6.53676L15.6852 6.75ZM21.0357 17.2679C20.5525 17.2679 20.1607 17.6596 20.1607 18.1429C20.1607 18.6261 20.5525 19.0179 21.0357 19.0179V17.2679ZM4.14286 19.0179C4.62611 19.0179 5.01786 18.6261 5.01786 18.1429C5.01786 17.6596 4.62611 17.2679 4.14286 17.2679V19.0179ZM21.3216 9.39304L20.7029 10.0118L21.3216 9.39304ZM22.4444 10.5158L23.0631 9.89713L22.4444 10.5158ZM7.28571 4.875H8.85714V3.125H7.28571V4.875ZM8.85714 17.2679H8.34175V19.0179H8.85714V17.2679ZM8.85714 19.0179C10.3108 19.0179 11.4713 19.0191 12.395 18.919C13.3351 18.8171 14.1331 18.602 14.8235 18.1005L13.7948 16.6847C13.4525 16.9334 12.9977 17.0934 12.2065 17.1792C11.3989 17.2667 10.3497 17.2679 8.85714 17.2679V19.0179ZM14.4704 16.0091C14.282 16.2684 14.0541 16.4963 13.7948 16.6847L14.8235 18.1005C15.2313 17.8042 15.5899 17.4456 15.8862 17.0378L14.4704 16.0091ZM8.85714 4.875C10.3497 4.875 11.3989 4.8762 12.2065 4.9637C12.9977 5.04942 13.4525 5.20947 13.7948 5.45818L14.8235 4.0424C14.1331 3.54082 13.3351 3.32573 12.395 3.22388C11.4713 3.1238 10.3108 3.125 8.85714 3.125V4.875ZM13.7948 5.45818C14.0541 5.64652 14.282 5.8745 14.4704 6.13373L15.8862 5.1051C15.5899 4.6973 15.2313 4.33868 14.8235 4.0424L13.7948 5.45818ZM7.28571 3.125C5.86685 3.125 5.03824 3.12032 4.45761 3.23549C3.76238 3.37339 3.3723 3.69255 2.89082 4.04236L3.91944 5.45814C4.47065 5.05767 4.54775 5.0017 4.79809 4.95205C5.16302 4.87966 5.75836 4.875 7.28571 4.875V3.125ZM2.89082 4.04236C2.48302 4.33865 2.1244 4.69727 1.82811 5.10507L3.24389 6.13369C3.43224 5.87446 3.66021 5.64649 3.91944 5.45814L2.89082 4.04236ZM1 11.1607H5.71429V9.41068H1V11.1607ZM1 8.80353H3.35714V7.05353H1V8.80353ZM3.06193 6.43917C3.11504 6.32895 3.17519 6.22826 3.24389 6.13369L1.82811 5.10507C1.69634 5.28644 1.58279 5.47742 1.48541 5.67951L3.06193 6.43917ZM16.2289 5.67955C16.1315 5.47746 16.0179 5.28648 15.8862 5.1051L14.4704 6.13373C14.5391 6.2283 14.5992 6.32899 14.6524 6.43921L16.2289 5.67955ZM23.0631 9.89713L21.9403 8.77432L20.7029 10.0118L21.8257 11.1346L23.0631 9.89713ZM16.5339 6.53676C16.4583 6.23589 16.3595 5.95054 16.2289 5.67955L14.6524 6.43921C14.7238 6.58746 14.7852 6.75855 14.8366 6.96324L16.5339 6.53676ZM16.8036 11.0714C16.8036 9.77723 16.8042 8.71914 16.7351 7.85857L14.9908 7.99857C15.0529 8.77318 15.0536 9.75011 15.0536 11.0714H16.8036ZM16.7351 7.85857C16.6969 7.38177 16.6357 6.94226 16.5339 6.53676L14.8366 6.96324C14.907 7.24325 14.9571 7.57955 14.9908 7.99857L16.7351 7.85857ZM17.7861 7.05357H15.863V8.80357H17.7861V7.05357ZM23.875 16.1786V11.8571H22.125V16.1786H23.875ZM15.0536 11.0714C15.0536 11.3461 15.0536 11.6066 15.053 11.855L16.803 11.8593C16.8036 11.6083 16.8036 11.3456 16.8036 11.0714H15.0536ZM15.053 11.855C15.05 13.0791 15.0316 13.9539 14.9391 14.6326C14.8488 15.295 14.6961 15.6985 14.4704 16.0091L15.8862 17.0378C16.3409 16.4119 16.5601 15.6978 16.673 14.8689C16.7838 14.0563 16.8 13.0662 16.803 11.8593L15.053 11.855ZM23 10.9821H15.928V12.7321H23V10.9821ZM16.7143 17.2679H8.34175V19.0179H16.7143V17.2679ZM16.7143 17.2679H8.85714V19.0179H16.7143V17.2679ZM0.910714 12.6429V15.7857H2.66071V12.6429H0.910714ZM0.910714 15.7857C0.910714 17.5708 2.35779 19.0179 4.14286 19.0179V17.2679C3.32429 17.2679 2.66071 16.6043 2.66071 15.7857H0.910714ZM22.125 16.1786C22.125 16.7802 21.6373 17.2679 21.0357 17.2679V19.0179C22.6038 19.0179 23.875 17.7467 23.875 16.1786H22.125ZM21.9403 8.77432C20.8386 7.67254 19.3442 7.05357 17.7861 7.05357V8.80357C18.8801 8.80357 19.9293 9.23817 20.7029 10.0118L21.9403 8.77432ZM21.8257 11.1346C22.0173 11.3262 22.125 11.5861 22.125 11.8571H23.875C23.875 11.122 23.583 10.417 23.0631 9.89713L21.8257 11.1346Z" fill="currentColor"/>
<circle cx="6.10711" cy="18.5356" r="1.96429" stroke="currentColor" stroke-width="1.5"/>
<circle cx="18.6784" cy="18.5356" r="1.96429" stroke="currentColor" stroke-width="1.5"/>
</svg>
