<svg viewBox="0 0 24 24" fill="none" xmlns="http://www.w3.org/2000/svg">
<path d="M8 12L7.125 12L8 12ZM16 12L16.875 12L16 12ZM12 16L12 16.875L12 16ZM14.0694 21.7856L14.2496 22.6419L14.0694 21.7856ZM9.9306 21.7856L9.75042 22.6419L9.9306 21.7856ZM2.73861 8.22119L1.92857 7.89034L1.92857 7.89034L2.73861 8.22119ZM2.21438 14.0694L1.35813 14.2496L2.21438 14.0694ZM9.9306 2.21438L9.75042 1.35813L9.9306 2.21438ZM14.0694 2.21438L14.2496 1.35813L14.0694 2.21438ZM21.1808 8.25728L21.4348 9.09461L21.1808 8.25728ZM2.81797 8.25692L3.07195 7.41959L2.81797 8.25692ZM20.4524 8.55454C20.8857 9.61648 21.125 10.7792 21.125 12H22.875C22.875 10.5486 22.5902 9.16158 22.0726 7.89332L20.4524 8.55454ZM21.125 12C21.125 12.6486 21.0575 13.2804 20.9294 13.8892L22.6419 14.2496C22.7948 13.523 22.875 12.7704 22.875 12H21.125ZM20.9294 13.8892C20.1881 17.4119 17.412 20.1881 13.8892 20.9294L14.2496 22.6419C18.4512 21.7578 21.7578 18.4512 22.6419 14.2496L20.9294 13.8892ZM13.8892 20.9294C13.2804 21.0575 12.6486 21.125 12 21.125V22.875C12.7704 22.875 13.523 22.7948 14.2496 22.6419L13.8892 20.9294ZM12 21.125C11.3514 21.125 10.7196 21.0575 10.1108 20.9294L9.75042 22.6419C10.477 22.7948 11.2296 22.875 12 22.875V21.125ZM2.875 12C2.875 10.7783 3.11463 9.61466 3.54865 8.55204L1.92857 7.89034C1.41024 9.15941 1.125 10.5475 1.125 12H2.875ZM10.1108 20.9294C6.58805 20.1881 3.81188 17.4119 3.07063 13.8892L1.35813 14.2496C2.24224 18.4512 5.54881 21.7578 9.75042 22.6419L10.1108 20.9294ZM3.07063 13.8892C2.94253 13.2804 2.875 12.6486 2.875 12H1.125C1.125 12.7704 1.20524 13.523 1.35813 14.2496L3.07063 13.8892ZM3.54865 8.55205C4.67852 5.78571 7.12782 3.69831 10.1108 3.07063L9.75042 1.35813C6.1904 2.10723 3.27458 4.59483 1.92857 7.89034L3.54865 8.55205ZM10.1108 3.07063C10.7196 2.94253 11.3514 2.875 12 2.875V1.125C11.2296 1.125 10.477 1.20524 9.75042 1.35813L10.1108 3.07063ZM12 2.875C12.6486 2.875 13.2804 2.94253 13.8892 3.07063L14.2496 1.35813C13.523 1.20524 12.7704 1.125 12 1.125V2.875ZM13.8892 3.07063C16.8731 3.6985 19.3229 5.78696 20.4524 8.55454L22.0726 7.89332C20.7272 4.59633 17.8107 2.10746 14.2496 1.35813L13.8892 3.07063ZM13.2358 2.48036C13.5114 3.34404 14.5299 6.66135 14.947 9.70582L16.6808 9.4683C16.242 6.26518 15.1834 2.82715 14.903 1.9484L13.2358 2.48036ZM14.947 9.70582C15.0587 10.5211 15.125 11.3017 15.125 12L16.875 12C16.875 11.1982 16.7994 10.3342 16.6808 9.4683L14.947 9.70582ZM20.9269 7.41994C19.8314 7.75222 17.7751 8.33533 15.6551 8.72659L15.9727 10.4475C18.1849 10.0393 20.3116 9.43527 21.4348 9.09461L20.9269 7.41994ZM15.6551 8.72659C14.3686 8.96402 13.0889 9.125 12 9.125L12 10.875C13.24 10.875 14.6371 10.694 15.9727 10.4475L15.6551 8.72659ZM15.125 12C15.125 13.0351 14.9795 14.2437 14.7606 15.4679L16.4833 15.7759C16.7111 14.5017 16.875 13.1802 16.875 12L15.125 12ZM14.7606 15.4679C14.2809 18.151 13.4745 20.7717 13.2358 21.5196L14.903 22.0516C15.149 21.2807 15.9831 18.5733 16.4833 15.7759L14.7606 15.4679ZM21.5196 13.2358C20.7717 13.4745 18.151 14.2809 15.4679 14.7606L15.7759 16.4833C18.5733 15.9831 21.2807 15.149 22.0516 14.903L21.5196 13.2358ZM15.4679 14.7606C14.2437 14.9795 13.0351 15.125 12 15.125L12 16.875C13.1802 16.875 14.5017 16.7111 15.7759 16.4833L15.4679 14.7606ZM12 15.125C10.9649 15.125 9.7563 14.9795 8.53207 14.7606L8.22406 16.4833C9.49828 16.7111 10.8198 16.875 12 16.875L12 15.125ZM8.53207 14.7606C5.84903 14.2809 3.22833 13.4745 2.48036 13.2358L1.9484 14.903C2.71932 15.149 5.42667 15.9831 8.22406 16.4833L8.53207 14.7606ZM7.125 12C7.125 13.1802 7.2889 14.5017 7.51672 15.7759L9.23941 15.4679C9.02052 14.2437 8.875 13.0351 8.875 12L7.125 12ZM7.51672 15.7759C8.01689 18.5733 8.85102 21.2807 9.097 22.0516L10.7642 21.5196C10.5255 20.7717 9.71913 18.151 9.23941 15.4679L7.51672 15.7759ZM9.097 1.9484C8.81661 2.82715 7.75801 6.26518 7.3192 9.4683L9.05301 9.70582C9.47008 6.66135 10.4886 3.34404 10.7642 2.48036L9.097 1.9484ZM7.3192 9.4683C7.20057 10.3342 7.125 11.1982 7.125 12L8.875 12C8.875 11.3017 8.94131 10.5211 9.05301 9.70582L7.3192 9.4683ZM12 9.125C10.9111 9.125 9.63142 8.96403 8.34491 8.72659L8.0273 10.4475C9.36294 10.694 10.76 10.875 12 10.875L12 9.125ZM8.34491 8.72659C6.22417 8.33519 4.16717 7.7518 3.07195 7.41959L2.56398 9.09424C3.68684 9.43484 5.81433 10.0391 8.0273 10.4475L8.34491 8.72659ZM20.8593 7.44738C20.8792 7.43706 20.9022 7.42744 20.9269 7.41994L21.4348 9.09461C21.5164 9.06987 21.5931 9.03818 21.6657 9.00048L20.8593 7.44738ZM2.2821 8.96767C2.3686 9.02057 2.46265 9.06351 2.56398 9.09424L3.07195 7.41959C3.11708 7.43328 3.15873 7.45247 3.19512 7.47472L2.2821 8.96767Z" fill="currentColor"/>
</svg>
